<?xml version="1.0" encoding="UTF-8"?>
<svg id="Layer_2" data-name="Layer 2" xmlns="http://www.w3.org/2000/svg" viewBox="0 0 125.21 143.48">
  <defs>
    <style>
      .cls-1 {
        fill: #463730;
      }
    </style>
  </defs>
  <g id="Layer_1-2" data-name="Layer 1">
    <path class="cls-1" d="M121.54,42.02c-2.46-8.53-6.21-15.95-11.27-22.26-5.02-6.25-11.56-11.14-19.55-14.59C82.7,1.74,73.34,0,62.62,0s-19.95,1.74-28.04,5.17c-8.07,3.45-14.66,8.34-19.67,14.59-5.04,6.31-8.79,13.72-11.2,22.26-2.46,8.56-3.71,17.87-3.71,27.93,0,9.28,1,17.66,2.99,25.14,1.99,7.48,4.55,14.08,7.75,19.76,3.18,5.72,7.2,10.67,12.03,14.93,4.83,4.21,10.63,7.58,17.39,10.04,6.76,2.46,14.23,3.66,22.47,3.66,10.97,0,20.56-2.08,28.7-6.27,8.15-4.15,14.7-9.76,19.65-16.79,4.98-7.01,8.58-14.87,10.84-23.53,2.25-8.68,3.39-17.66,3.39-26.94,0-10.06-1.21-19.38-3.66-27.93ZM49.28,126.71c-.4,1-1.38,1.91-2.84,2.35-1.69.51-3.85.25-5.55-.3-.15-.04-.28-.08-.4-.13-.78-.3-1.5-.66-1.84-1.16-.28-.36-.32-.83-.25-1.23.15-1.25.93-2.44,2.14-3.3.42-.3,1-.59,1.61-.68.64-.08,1.42.02,2.08.08.74.06,1.48.17,2.18.38.68.21,1.27.51,1.78.87.49.34,1.02.78,1.25,1.25.3.59.08,1.27-.15,1.86ZM74.91,23.3c-1.16,1.5-3.24,2.18-5.08,2.24-.15.02-.3.02-.44,0-.87-.02-1.74-.19-2.37-.72-.49-.38-.83-1-1.04-1.59-.68-1.78-.76-3.77-.28-5.55.19-.61.49-1.29,1-1.67.49-.44,1.27-.66,1.89-.89.7-.25,1.42-.47,2.16-.51.74-.04,1.46.08,2.14.34.66.25,1.4.61,1.91,1.14.66.68.93,1.72,1.1,2.63.3,1.57.02,3.3-.97,4.57ZM94.45,29.37c-.08.19-.17.4-.25.59-.55,1.14-1.27,2.22-2.35,2.77-.78.42-1.8.53-2.71.49-2.77-.13-5.49-1.14-7.58-2.84-.72-.59-1.44-1.38-1.69-2.29-.3-.91-.13-2.08-.08-3.01.04-1.1.19-2.18.55-3.22.36-1,.95-1.88,1.67-2.65.74-.72,1.65-1.55,2.63-1.91,1.31-.51,2.82-.25,4.15.04,2.27.51,4.43,1.84,5.57,3.92,1.36,2.41,1.08,5.59.11,8.09Z"/>
  </g>
</svg>